<svg width="57" height="54" viewBox="0 0 57 54" fill="none" xmlns="http://www.w3.org/2000/svg">
<g clip-path="url(#clip0_12_35)">
<path opacity="0.08" d="M34.6957 54C47.0141 54 57 43.9574 57 31.5692C57 19.181 47.0141 9.13843 34.6957 9.13843C22.3774 9.13843 12.3914 19.181 12.3914 31.5692C12.3914 43.9574 22.3774 54 34.6957 54Z" fill="#825037"/>
<path d="M34.4984 32.5773C35.6296 32.5773 36.5497 33.5146 36.5497 34.6671C36.5497 35.8218 35.6296 36.7569 34.4984 36.7569H22.9038C21.7726 36.7569 20.8526 35.8218 20.8526 34.6671C20.8526 33.5146 21.7726 32.5773 22.9038 32.5773H34.4984ZM26.4577 1.42752L29.4527 3.82023C30.6809 4.7861 31.4997 6.05928 31.7798 7.39832C32.103 8.87129 31.7583 10.3179 30.7886 11.5691L12.9475 34.7718C12.1287 35.8255 10.9221 36.4182 9.62928 36.4401L2.51867 36.5279C2.13082 36.5279 1.80761 36.2645 1.72143 35.8913L0.105382 28.8449C-0.174732 27.5498 0.105382 26.2108 0.924177 25.179L13.5724 8.71543C13.7879 8.452 14.1757 8.41029 14.4343 8.60569L19.7564 12.8642C20.1012 13.1496 20.5753 13.3033 21.0708 13.2374C22.1267 13.1057 22.8377 12.1399 22.7299 11.1081C22.6653 10.5813 22.4068 10.1423 22.062 9.81296C21.9543 9.72515 16.8907 5.6422 16.8907 5.6422C16.5674 5.37878 16.5028 4.89586 16.7614 4.56877L18.7653 1.95436C20.6183 -0.438353 23.8505 -0.657868 26.4577 1.42752Z" fill="#825037"/>
</g>
<defs>
<clipPath id="clip0_12_35">
<rect width="57" height="54" fill="white"/>
</clipPath>
</defs>
</svg>
