<svg width="56" height="54" viewBox="0 0 56 54" fill="none" xmlns="http://www.w3.org/2000/svg">
<g clip-path="url(#clip0_12_94)">
<path opacity="0.08" d="M34.0869 54.0001C46.1892 54.0001 56 44.1096 56 31.9092C56 19.7087 46.1892 9.81824 34.0869 9.81824C21.9847 9.81824 12.1739 19.7087 12.1739 31.9092C12.1739 44.1096 21.9847 54.0001 34.0869 54.0001Z" fill="#825037"/>
<path d="M25.9687 0C32.109 0 36.2341 4.34341 36.2341 10.8064V25.7218C36.2341 32.1848 32.109 36.5282 25.9668 36.5282H10.2655C4.12506 36.5282 0 32.1848 0 25.7218V10.8064C0 4.34341 4.12506 0 10.2655 0H25.9687ZM27.9666 19.2688C26.0245 18.0474 24.5252 19.7625 24.1207 20.311C23.7309 20.8406 23.3956 21.425 23.0422 22.0093C22.1787 23.4511 21.1894 25.1136 19.4769 26.0805C16.9883 27.4696 15.0991 26.1898 13.74 25.2587C13.23 24.9119 12.7344 24.584 12.2407 24.3653C11.0237 23.8357 9.9288 24.4388 8.30375 26.5197C7.45117 27.6073 6.60584 28.6854 5.74959 29.7597C5.23766 30.4025 5.35973 31.3939 6.05019 31.8236C7.15239 32.5078 8.49691 32.8754 10.0163 32.8754H25.2848C26.1466 32.8754 27.0101 32.7566 27.8335 32.4852C29.6881 31.8745 31.1602 30.476 31.929 28.6288C32.5776 27.0757 32.8927 25.1909 32.286 23.6227C32.0839 23.1025 31.7814 22.6181 31.3569 22.1921C30.2438 21.0782 29.2035 20.0378 27.9666 19.2688ZM11.774 7.30563C9.27628 7.30563 7.24681 9.35435 7.24681 11.8717C7.24681 14.389 9.27628 16.4377 11.774 16.4377C14.2699 16.4377 16.3012 14.389 16.3012 11.8717C16.3012 9.35435 14.2699 7.30563 11.774 7.30563Z" fill="#825037"/>
</g>
<defs>
<clipPath id="clip0_12_94">
<rect width="56" height="54" fill="white"/>
</clipPath>
</defs>
</svg>
