<svg width="57" height="54" viewBox="0 0 57 54" fill="none" xmlns="http://www.w3.org/2000/svg">
<g clip-path="url(#clip0_12_102)">
<path opacity="0.08" d="M34.6957 54.0001C47.0141 54.0001 57.0001 44.1096 57.0001 31.9091C57.0001 19.7087 47.0141 9.81824 34.6957 9.81824C22.3774 9.81824 12.3914 19.7087 12.3914 31.9091C12.3914 44.1096 22.3774 54.0001 34.6957 54.0001Z" fill="#825037"/>
<path d="M18.2103 0.0275879C28.533 0.0275879 36.3478 8.41019 36.3478 18.0005C36.3478 29.1232 27.1882 36.0276 18.1739 36.0276C15.1934 36.0276 11.8857 35.2344 9.23235 33.6841C8.30548 33.1253 7.524 32.7106 6.52444 33.0351L2.8533 34.1167C1.92643 34.4051 1.09043 33.6841 1.36304 32.7106L2.5807 28.6725C2.78061 28.1137 2.74426 27.5188 2.45348 27.0501C0.890522 24.2018 0 21.0832 0 18.0546C0 8.57244 7.65122 0.0275879 18.2103 0.0275879ZM26.5157 15.7652C25.2254 15.7652 24.1895 16.7927 24.1895 18.0727C24.1895 19.3346 25.2254 20.3801 26.5157 20.3801C27.8061 20.3801 28.842 19.3346 28.842 18.0727C28.842 16.7927 27.8061 15.7652 26.5157 15.7652ZM18.1376 15.7652C16.8654 15.7472 15.8113 16.7927 15.8113 18.0546C15.8113 19.3346 16.8472 20.3621 18.1376 20.3801C19.4279 20.3801 20.4638 19.3346 20.4638 18.0727C20.4638 16.7927 19.4279 15.7652 18.1376 15.7652ZM9.75939 15.7652C8.46904 15.7652 7.43313 16.7927 7.43313 18.0727C7.43313 19.3346 8.48722 20.3801 9.75939 20.3801C11.0497 20.3621 12.0857 19.3346 12.0857 18.0727C12.0857 16.7927 11.0497 15.7652 9.75939 15.7652Z" fill="#825037"/>
</g>
<defs>
<clipPath id="clip0_12_102">
<rect width="57" height="54" fill="white"/>
</clipPath>
</defs>
</svg>
