<svg width="57" height="54" viewBox="0 0 57 54" fill="none" xmlns="http://www.w3.org/2000/svg">
<g clip-path="url(#clip0_12_105)">
<path opacity="0.08" d="M34.3676 54C46.8671 54 57 43.9574 57 31.5692C57 19.181 46.8671 9.13843 34.3676 9.13843C21.8681 9.13843 11.7353 19.181 11.7353 31.5692C11.7353 43.9574 21.8681 54 34.3676 54Z" fill="#825037"/>
<path d="M19.2344 0.123901C20.6581 0.123901 21.9471 0.907525 22.6589 2.06431C23.0052 2.62404 23.236 3.31438 23.1784 4.04203C23.1399 4.60176 23.313 5.1615 23.6208 5.68392C24.602 7.26983 26.776 7.86688 28.469 6.9713C30.3736 5.88916 32.7785 6.54218 33.8751 8.38933L35.1641 10.591C36.28 12.438 35.6643 14.8076 33.7405 15.8711C32.1052 16.8226 31.528 18.931 32.5092 20.5355C32.817 21.0393 33.1633 21.4684 33.702 21.7296C34.3754 22.0841 34.8948 22.6438 35.2603 23.2036C35.9721 24.3604 35.9144 25.7783 35.2218 27.0284L33.8751 29.2673C33.1633 30.4615 31.8358 31.2077 30.4699 31.2077C29.7965 31.2077 29.0462 31.0211 28.4305 30.6481C27.9303 30.3309 27.3531 30.2189 26.7375 30.2189C24.8329 30.2189 23.236 31.7675 23.1784 33.6146C23.1784 35.7603 21.4084 37.4394 19.1959 37.4394H16.5795C14.3477 37.4394 12.5777 35.7603 12.5777 33.6146C12.5392 31.7675 10.9425 30.2189 9.03785 30.2189C8.40297 30.2189 7.82577 30.3309 7.3448 30.6481C6.72916 31.0211 5.95961 31.2077 5.30549 31.2077C3.9203 31.2077 2.59282 30.4615 1.88098 29.2673L0.553505 27.0284C-0.15833 25.8156 -0.196808 24.3604 0.515027 23.2036C0.822848 22.6438 1.40001 22.0841 2.05413 21.7296C2.59282 21.4684 2.93912 21.0393 3.26618 20.5355C4.22812 18.931 3.65095 16.8226 2.01565 15.8711C0.111013 14.8076 -0.504629 12.438 0.591983 10.591L1.88098 8.38933C2.99683 6.54218 5.38244 5.88916 7.30633 6.9713C8.9801 7.86688 11.1541 7.26983 12.1353 5.68392C12.4431 5.1615 12.6163 4.60176 12.5777 4.04203C12.5392 3.31438 12.7509 2.62404 13.1165 2.06431C13.8283 0.907525 15.1173 0.161217 16.5217 0.123901H19.2344ZM17.9069 13.5202C14.8864 13.5202 12.4431 15.8711 12.4431 18.8004C12.4431 21.7296 14.8864 24.0618 17.9069 24.0618C20.9274 24.0618 23.313 21.7296 23.313 18.8004C23.313 15.8711 20.9274 13.5202 17.9069 13.5202Z" fill="#825037"/>
</g>
<defs>
<clipPath id="clip0_12_105">
<rect width="57" height="54" fill="white"/>
</clipPath>
</defs>
</svg>
