<svg width="56" height="54" viewBox="0 0 56 54" fill="none" xmlns="http://www.w3.org/2000/svg">
<g clip-path="url(#clip0_12_99)">
<path opacity="0.08" d="M33.4329 54C45.8964 54 56 43.9574 56 31.5692C56 19.181 45.8964 9.13843 33.4329 9.13843C20.9694 9.13843 10.8657 19.181 10.8657 31.5692C10.8657 43.9574 20.9694 54 33.4329 54Z" fill="#825037"/>
<path d="M28.63 28.5181C29.3385 27.8188 30.4741 27.8188 31.1826 28.5181L35.8648 32.2749H35.9461C36.8934 33.2265 36.8934 34.7695 35.9461 35.7212C34.9988 36.6729 33.4629 36.6729 32.5157 35.7212L28.63 31.2949L28.4826 31.1295C28.208 30.7839 28.0562 30.3531 28.0562 29.9065C28.0562 29.3856 28.2627 28.8859 28.63 28.5181ZM15.7214 0C19.8909 0 23.8897 1.66406 26.838 4.62608C29.7863 7.58811 31.4427 11.6055 31.4427 15.7944C31.4427 24.5175 24.404 31.5888 15.7214 31.5888C7.03868 31.5888 0 24.5175 0 15.7944C0 7.07141 7.03868 0 15.7214 0Z" fill="#825037"/>
</g>
<defs>
<clipPath id="clip0_12_99">
<rect width="56" height="54" fill="white"/>
</clipPath>
</defs>
</svg>
