<svg width="58" height="54" viewBox="0 0 58 54" fill="none" xmlns="http://www.w3.org/2000/svg">
<g clip-path="url(#clip0_12_82)">
<path opacity="0.2" d="M35.3043 54C47.8388 54 57.9999 43.9574 57.9999 31.5692C57.9999 19.181 47.8388 9.13843 35.3043 9.13843C22.7698 9.13843 12.6086 19.181 12.6086 31.5692C12.6086 43.9574 22.7698 54 35.3043 54Z" fill="#825037"/>
<path d="M12.8786 5.40905C13.7849 5.24138 14.6937 5.68865 15.0891 6.49706C15.1876 6.64376 15.2664 6.802 15.3236 6.96799C15.5748 10.8003 15.8428 14.5678 16.094 18.3352C16.0883 18.7269 16.1505 19.1166 16.2782 19.4882C16.5787 20.2193 17.3266 20.6832 18.1371 20.6411L30.4462 19.8617L30.5299 19.8942L30.7546 19.9101C31.1995 19.9664 31.6144 20.1672 31.9294 20.483C32.2968 20.8516 32.4983 21.3465 32.4896 21.859C32.0043 28.8446 26.8223 34.6814 19.7703 36.1851C12.7182 37.6888 5.48904 34.4984 2.02647 28.3546C1.00833 26.5851 0.364939 24.6362 0.0752193 22.6223C0.044513 22.0255 0.00530668 21.4227 0.0168306 20.8197C0.0401692 13.3916 5.39122 6.98007 12.8786 5.40905ZM20.197 0.00150766C28.6497 0.251591 35.7139 6.31614 36.9942 14.4217C37.0024 14.47 37.0024 14.5194 36.9942 14.5678L36.992 14.7966C36.9642 15.0991 36.8386 15.3876 36.6298 15.6192C36.369 15.9087 35.9999 16.0855 35.6042 16.1105L21.4028 17.0361L21.1688 17.0407C20.7812 17.022 20.4094 16.873 20.1199 16.6154C19.7724 16.3063 19.5754 15.8694 19.5773 15.4122L18.6228 1.6254V1.39805C18.6402 1.01031 18.8159 0.645181 19.1112 0.383199C19.4065 0.121217 19.7971 -0.0161078 20.197 0.00150766Z" fill="#825037"/>
</g>
<defs>
<clipPath id="clip0_12_82">
<rect width="58" height="54" fill="white"/>
</clipPath>
</defs>
</svg>
