<svg width="40" height="40" viewBox="0 0 40 40" fill="none" xmlns="http://www.w3.org/2000/svg">
<g clip-path="url(#clip0_364_35)">
<path d="M38.1117 23.333C34.9262 23.206 31.7587 23.8671 28.89 25.2577C26.0214 26.6483 23.5402 28.7253 21.6667 31.3047V23.198C23.9955 22.7993 26.1086 21.5909 27.6333 19.786C29.158 17.9811 29.9962 15.6957 30 13.333C30 8.66633 26.76 4.73466 23.5933 1.49966C22.6331 0.559785 21.3428 0.0334473 19.9992 0.0334473C18.6555 0.0334473 17.3653 0.559785 16.405 1.49966C13.2383 4.72633 10 8.66633 10 13.333C10.0019 15.6971 10.8392 17.9845 12.364 19.7911C13.8889 21.5978 16.0031 22.8074 18.3333 23.2063V31.313C16.4607 28.7321 13.98 26.6535 11.1112 25.2614C8.2425 23.8693 5.07449 23.2069 1.88833 23.333H0L0.235 25.2097C1.54667 35.723 11.4317 39.2947 17.9233 39.918C19.3058 40.023 20.6942 40.023 22.0767 39.918C28.5683 39.2963 38.4517 35.7247 39.765 25.2097L40 23.333H38.1117ZM3.935 26.768C6.88567 26.9747 9.72175 27.9932 12.1298 29.7109C14.5378 31.4286 16.424 33.7787 17.58 36.5013C13.6033 35.9897 5.975 34.0563 3.935 26.768ZM13.3333 13.333C13.3333 9.873 16.35 6.373 19.0467 3.618C17.6361 7.25615 16.8321 11.1011 16.6667 14.9997H20C20.1662 11.5125 20.8939 8.07502 22.155 4.81966C24.5167 7.35133 26.6667 10.2697 26.6667 13.333C26.6667 15.1011 25.9643 16.7968 24.714 18.047C23.4638 19.2973 21.7681 19.9997 20 19.9997C18.2319 19.9997 16.5362 19.2973 15.286 18.047C14.0357 16.7968 13.3333 15.1011 13.3333 13.333ZM22.42 36.4997C23.5763 33.7772 25.4626 31.4274 27.8706 29.7097C30.2785 27.992 33.1144 26.9734 36.065 26.7663C34.025 34.0563 26.3967 35.9897 22.42 36.4997Z" fill="#825037"/>
</g>
<defs>
<clipPath id="clip0_364_35">
<rect width="40" height="40" fill="white"/>
</clipPath>
</defs>
</svg>
