<svg width="40" height="40" viewBox="0 0 40 40" fill="none" xmlns="http://www.w3.org/2000/svg">
<g clip-path="url(#clip0_364_2)">
<path d="M15 19.9999C13.0222 19.9999 11.0888 19.4134 9.4443 18.3146C7.79981 17.2158 6.51809 15.654 5.76121 13.8267C5.00433 11.9995 4.8063 9.98879 5.19215 8.04898C5.578 6.10917 6.53041 4.32734 7.92894 2.92881C9.32746 1.53029 11.1093 0.577882 13.0491 0.19203C14.9889 -0.193823 16.9996 0.00421079 18.8268 0.761087C20.6541 1.51796 22.2159 2.79969 23.3147 4.44418C24.4135 6.08867 25 8.02207 25 9.99988C24.9974 12.6512 23.9429 15.1932 22.0681 17.068C20.1934 18.9428 17.6514 19.9972 15 19.9999ZM15 3.33322C13.6815 3.33322 12.3925 3.72421 11.2962 4.45675C10.1999 5.18929 9.34539 6.23049 8.84081 7.44866C8.33622 8.66683 8.2042 10.0073 8.46144 11.3005C8.71867 12.5937 9.35361 13.7816 10.286 14.7139C11.2183 15.6463 12.4062 16.2812 13.6994 16.5385C14.9926 16.7957 16.3331 16.6637 17.5512 16.1591C18.7694 15.6545 19.8106 14.8 20.5431 13.7037C21.2757 12.6074 21.6667 11.3184 21.6667 9.99988C21.6667 8.23177 20.9643 6.53608 19.7141 5.28584C18.4638 4.03559 16.7681 3.33322 15 3.33322Z" fill="#825037"/>
<path d="M30 39.9994H26.6667V31.5945C26.6649 30.2879 26.1451 29.0354 25.2212 28.1116C24.2974 27.1877 23.0449 26.6679 21.7383 26.6661H8.26167C6.95513 26.6679 5.70262 27.1877 4.77876 28.1116C3.8549 29.0354 3.3351 30.2879 3.33333 31.5945V39.9994H0V31.5945C0.00264638 29.4042 0.873919 27.3043 2.42271 25.7555C3.9715 24.2067 6.07135 23.3355 8.26167 23.3328H21.7383C23.9287 23.3355 26.0285 24.2067 27.5773 25.7555C29.1261 27.3043 29.9974 29.4042 30 31.5945V39.9994Z" fill="#825037"/>
<path d="M36.6664 13.125C35.7389 13.1712 34.8674 13.5829 34.2427 14.2701C33.618 14.9573 33.291 15.8639 33.3331 16.7917C33.3752 15.8639 33.0482 14.9573 32.4235 14.2701C31.7988 13.5829 30.9273 13.1712 29.9998 13.125C29.0723 13.1712 28.2008 13.5829 27.5761 14.2701C26.9514 14.9573 26.6243 15.8639 26.6665 16.7917C26.6665 20.625 33.3331 25.3467 33.3331 25.3467C33.3331 25.3467 39.9997 20.6317 39.9997 16.7917C40.0419 15.8639 39.7148 14.9573 39.0901 14.2701C38.4654 13.5829 37.594 13.1712 36.6664 13.125Z" fill="#825037"/>
</g>
<defs>
<clipPath id="clip0_364_2">
<rect width="40" height="40" fill="white"/>
</clipPath>
</defs>
</svg>
