<svg width="40" height="40" viewBox="0 0 40 40" fill="none" xmlns="http://www.w3.org/2000/svg">
<g clip-path="url(#clip0_364_38)">
<path d="M3.33333 34.9603V-0.0396729H0V34.9603C0 36.2864 0.526784 37.5582 1.46447 38.4959C2.40215 39.4335 3.67392 39.9603 5 39.9603H40V36.627H5C4.55797 36.627 4.13405 36.4514 3.82149 36.1388C3.50893 35.8263 3.33333 35.4024 3.33333 34.9603Z" fill="#825037"/>
<path d="M37.4999 6.62671H28.3333L32.9883 11.2817L25.8333 18.4367L22.4999 15.1034L10.4683 27.135L12.8333 29.5L22.5083 19.8334L25.8416 23.1667L35.3533 13.655L39.9999 18.2934V9.12671C39.9999 8.46367 39.7365 7.82778 39.2677 7.35894C38.7989 6.8901 38.163 6.62671 37.4999 6.62671Z" fill="#825037"/>
</g>
<defs>
<clipPath id="clip0_364_38">
<rect width="40" height="40" fill="white"/>
</clipPath>
</defs>
</svg>
